<svg width="307" height="447" viewBox="0 0 307 447" fill="none" xmlns="http://www.w3.org/2000/svg">
<path fill-rule="evenodd" clip-rule="evenodd" d="M20.4233 220.391H141.445V366.813H39.0996C28.785 366.813 20.4233 358.451 20.4233 348.137V220.391Z" fill="#121F29" stroke="#5CFFF7" stroke-width="5"/>
<path fill-rule="evenodd" clip-rule="evenodd" d="M141.445 202.462V125.516L15.9411 125.516C7.68942 125.516 1.00012 132.205 1.00012 140.457V187.521C1.00012 195.773 7.68942 202.462 15.9411 202.462H141.445Z" fill="#5CFFF7" stroke="#5CFFF7"/>
<path fill-rule="evenodd" clip-rule="evenodd" d="M160.121 200.968V127.01L282.637 127.01C290.889 127.01 297.578 133.699 297.578 141.951V186.027C297.578 194.279 290.889 200.968 282.637 200.968H160.121Z" fill="#121F29" stroke="#5CFFF7" stroke-width="5"/>
<path fill-rule="evenodd" clip-rule="evenodd" d="M282.637 218.897H158.627V368.307H263.961C274.276 368.307 282.637 359.945 282.637 349.631V218.897Z" fill="#5CFFF7" stroke="#5CFFF7"/>
<path d="M222.917 50.1405C236.061 46.0922 250.598 47.9095 262.485 55.6065C263.844 56.487 263.85 58.4858 262.485 59.3696C247.551 69.0391 228.226 69.5293 212.737 60.3274L193.89 79.1879C211.201 73.0061 230.749 75.041 246.587 85.296C247.946 86.1765 247.952 88.1752 246.587 89.0591C227.374 101.499 202.644 101.873 183.063 90.0216L162.198 110.901C183.486 102.572 207.884 104.768 227.531 117.489C228.891 118.37 228.896 120.369 227.531 121.252C204.128 136.406 174.249 136.519 150.889 122.218C134.364 138.754 135.275 138.214 133.976 138.214C131.999 138.214 130.977 135.804 132.392 134.388L147.721 119.049C133.331 95.5098 133.651 65.6066 148.686 42.3533C149.57 40.987 151.567 40.9929 152.447 42.3533C165.16 62.0138 167.354 86.4294 159.03 107.732L179.896 86.8521C168.081 67.3031 168.4 42.5513 180.858 23.2852C181.74 21.922 183.736 21.9218 184.619 23.2852C194.867 39.1342 196.9 58.6953 190.722 76.0187L209.57 57.1579C200.458 41.7989 200.776 22.4563 210.527 7.3765C211.409 6.01336 213.406 6.01308 214.288 7.3765C221.98 19.2717 223.796 33.8183 219.75 46.9713L227.405 39.3115C231.53 21.529 245.609 7.63283 263.492 3.79803C265.076 3.45851 266.492 4.86816 266.151 6.45905C262.302 24.4332 248.31 38.5686 230.426 42.6264L222.917 50.1405Z" fill="#5CFFF7" stroke="#5CFFF7" stroke-width="3"/>
<path d="M77.9025 49.3934C64.7587 45.3452 50.222 47.1624 38.3349 54.8595C36.9752 55.7399 36.9699 57.7387 38.3349 58.6225C53.2684 68.292 72.5933 68.7823 88.0824 59.5803L106.93 78.4408C89.6185 72.259 70.0707 74.294 54.233 84.5489C52.8734 85.4294 52.868 87.4282 54.233 88.312C73.4454 100.752 98.1756 101.125 117.757 89.2746L138.622 110.154C117.334 101.825 92.9353 104.021 73.2881 116.742C71.9284 117.623 71.9231 119.621 73.2881 120.505C96.6913 135.659 126.571 135.772 149.931 121.471C166.456 138.007 165.545 137.467 166.844 137.467C168.821 137.467 169.843 135.057 168.427 133.641L153.098 118.301C167.489 94.7627 167.169 64.8595 152.133 41.6062C151.25 40.24 149.252 40.2458 148.372 41.6062C135.659 61.2668 133.466 85.6824 141.789 106.985L120.924 86.1051C132.739 66.556 132.419 41.8042 119.962 22.5381C119.08 21.175 117.083 21.1747 116.201 22.5381C105.953 38.3871 103.92 57.9482 110.097 75.2716L91.2494 56.4109C100.361 41.0518 100.043 21.7092 90.2923 6.62943C89.4105 5.26629 87.4136 5.26601 86.5315 6.62943C78.8397 18.5246 77.024 33.0713 81.0695 46.2242L73.4149 38.5645C69.2896 20.7819 55.2103 6.88576 37.3271 3.05096C35.7432 2.71144 34.3278 4.12109 34.6682 5.71198C38.5174 23.6861 52.51 37.8215 70.3935 41.8793L77.9025 49.3934Z" fill="#121F29" stroke="#5CFFF7" stroke-width="5"/>
<path d="M15.963 421C14.523 421 13.803 420.28 13.803 418.84V389.32C13.803 387.88 14.523 387.16 15.963 387.16H25.227C30.699 387.16 34.923 388.616 37.899 391.528C40.875 394.408 42.363 398.584 42.363 404.056C42.363 409.528 40.875 413.72 37.899 416.632C34.923 419.544 30.699 421 25.227 421H15.963ZM17.739 417.64H24.939C33.771 417.64 38.187 413.112 38.187 404.056C38.187 395.032 33.771 390.52 24.939 390.52H17.739V417.64ZM59.412 421.432C55.732 421.432 52.82 420.36 50.676 418.216C48.532 416.04 47.46 413.096 47.46 409.384C47.46 406.984 47.94 404.872 48.9 403.048C49.86 401.192 51.172 399.768 52.836 398.776C54.532 397.752 56.484 397.24 58.692 397.24C61.86 397.24 64.34 398.264 66.132 400.312C67.924 402.328 68.82 405.112 68.82 408.664C68.82 409.656 68.26 410.152 67.14 410.152H51.252C51.38 412.808 52.148 414.84 53.556 416.248C54.964 417.624 56.916 418.312 59.412 418.312C60.468 418.312 61.54 418.184 62.628 417.928C63.716 417.64 64.772 417.144 65.796 416.44C66.532 415.96 67.14 415.864 67.62 416.152C68.132 416.44 68.388 416.888 68.388 417.496C68.42 418.072 68.1 418.584 67.428 419.032C66.372 419.8 65.108 420.392 63.636 420.808C62.196 421.224 60.788 421.432 59.412 421.432ZM58.788 400.12C56.58 400.12 54.836 400.808 53.556 402.184C52.276 403.56 51.524 405.368 51.3 407.608H65.46C65.364 405.24 64.74 403.4 63.588 402.088C62.468 400.776 60.868 400.12 58.788 400.12ZM76.4628 421.336C75.1828 421.336 74.5428 420.664 74.5428 419.32V399.304C74.5428 397.992 75.1668 397.336 76.4148 397.336C77.6948 397.336 78.3348 397.992 78.3348 399.304V401.608C79.0388 400.2 80.0148 399.128 81.2628 398.392C82.5108 397.624 83.9668 397.24 85.6308 397.24C89.2788 397.24 91.6148 398.824 92.6388 401.992C93.3428 400.52 94.3828 399.368 95.7588 398.536C97.1348 397.672 98.7188 397.24 100.511 397.24C105.695 397.24 108.287 400.312 108.287 406.456V419.32C108.287 420.664 107.631 421.336 106.319 421.336C105.039 421.336 104.399 420.664 104.399 419.32V406.648C104.399 404.504 104.015 402.936 103.247 401.944C102.511 400.92 101.279 400.408 99.5508 400.408C97.6628 400.408 96.1588 401.08 95.0388 402.424C93.9188 403.768 93.3588 405.56 93.3588 407.8V419.32C93.3588 420.664 92.7028 421.336 91.3908 421.336C90.1108 421.336 89.4708 420.664 89.4708 419.32V406.648C89.4708 404.504 89.0868 402.936 88.3188 401.944C87.5828 400.92 86.3508 400.408 84.6228 400.408C82.7028 400.408 81.1828 401.08 80.0628 402.424C78.9748 403.768 78.4308 405.56 78.4308 407.8V419.32C78.4308 420.664 77.7748 421.336 76.4628 421.336ZM126.068 421.432C122.388 421.432 119.476 420.36 117.332 418.216C115.188 416.04 114.116 413.096 114.116 409.384C114.116 406.984 114.596 404.872 115.556 403.048C116.516 401.192 117.828 399.768 119.492 398.776C121.188 397.752 123.14 397.24 125.348 397.24C128.516 397.24 130.996 398.264 132.788 400.312C134.58 402.328 135.476 405.112 135.476 408.664C135.476 409.656 134.916 410.152 133.796 410.152H117.908C118.036 412.808 118.804 414.84 120.212 416.248C121.62 417.624 123.572 418.312 126.068 418.312C127.124 418.312 128.196 418.184 129.284 417.928C130.372 417.64 131.428 417.144 132.452 416.44C133.188 415.96 133.796 415.864 134.276 416.152C134.788 416.44 135.044 416.888 135.044 417.496C135.076 418.072 134.756 418.584 134.084 419.032C133.028 419.8 131.764 420.392 130.292 420.808C128.852 421.224 127.444 421.432 126.068 421.432ZM125.444 400.12C123.236 400.12 121.492 400.808 120.212 402.184C118.932 403.56 118.18 405.368 117.956 407.608H132.116C132.02 405.24 131.396 403.4 130.244 402.088C129.124 400.776 127.524 400.12 125.444 400.12ZM150.463 421.432C147.711 421.432 145.647 420.712 144.271 419.272C142.895 417.8 142.207 415.688 142.207 412.936V400.696H138.991C137.871 400.696 137.311 400.184 137.311 399.16C137.311 398.168 137.871 397.672 138.991 397.672H142.207V392.152C142.207 390.84 142.863 390.184 144.175 390.184C145.455 390.184 146.095 390.84 146.095 392.152V397.672H152.143C153.263 397.672 153.823 398.168 153.823 399.16C153.823 400.184 153.263 400.696 152.143 400.696H146.095V412.552C146.095 414.376 146.479 415.768 147.247 416.728C148.015 417.656 149.263 418.12 150.991 418.12C151.599 418.12 152.111 418.056 152.527 417.928C152.943 417.8 153.311 417.736 153.631 417.736C153.919 417.704 154.159 417.8 154.351 418.024C154.543 418.248 154.639 418.632 154.639 419.176C154.639 419.56 154.559 419.912 154.399 420.232C154.271 420.552 154.031 420.776 153.679 420.904C153.295 421.032 152.783 421.144 152.143 421.24C151.535 421.368 150.975 421.432 150.463 421.432ZM168.162 421.432C164.482 421.432 161.57 420.36 159.426 418.216C157.282 416.04 156.21 413.096 156.21 409.384C156.21 406.984 156.69 404.872 157.65 403.048C158.61 401.192 159.922 399.768 161.586 398.776C163.282 397.752 165.234 397.24 167.442 397.24C170.61 397.24 173.09 398.264 174.882 400.312C176.674 402.328 177.57 405.112 177.57 408.664C177.57 409.656 177.01 410.152 175.89 410.152H160.002C160.13 412.808 160.898 414.84 162.306 416.248C163.714 417.624 165.666 418.312 168.162 418.312C169.218 418.312 170.29 418.184 171.378 417.928C172.466 417.64 173.522 417.144 174.546 416.44C175.282 415.96 175.89 415.864 176.37 416.152C176.882 416.44 177.138 416.888 177.138 417.496C177.17 418.072 176.85 418.584 176.178 419.032C175.122 419.8 173.858 420.392 172.386 420.808C170.946 421.224 169.538 421.432 168.162 421.432ZM167.538 400.12C165.33 400.12 163.586 400.808 162.306 402.184C161.026 403.56 160.274 405.368 160.05 407.608H174.21C174.114 405.24 173.49 403.4 172.338 402.088C171.218 400.776 169.618 400.12 167.538 400.12ZM185.165 421.336C183.853 421.336 183.197 420.664 183.197 419.32V399.304C183.197 397.992 183.821 397.336 185.069 397.336C186.349 397.336 186.989 397.992 186.989 399.304V401.848C187.629 400.376 188.621 399.256 189.965 398.488C191.309 397.688 192.909 397.256 194.765 397.192C195.789 397.096 196.333 397.608 196.397 398.728C196.493 399.848 195.917 400.472 194.669 400.6L193.901 400.696C191.693 400.888 190.013 401.592 188.861 402.808C187.709 403.992 187.133 405.624 187.133 407.704V419.32C187.133 420.664 186.477 421.336 185.165 421.336ZM216.384 421.432C210.944 421.432 206.8 419.896 203.952 416.824C201.104 413.752 199.68 409.512 199.68 404.104C199.68 400.52 200.32 397.432 201.6 394.84C202.88 392.248 204.72 390.248 207.12 388.84C209.52 387.432 212.416 386.728 215.808 386.728C217.824 386.728 219.776 387.016 221.664 387.592C223.552 388.136 225.232 389.016 226.704 390.232C227.152 390.552 227.408 390.952 227.472 391.432C227.536 391.88 227.44 392.312 227.184 392.728C226.96 393.112 226.624 393.368 226.176 393.496C225.76 393.624 225.312 393.528 224.832 393.208C223.52 392.184 222.128 391.448 220.656 391C219.184 390.52 217.552 390.28 215.76 390.28C211.92 390.28 208.976 391.496 206.928 393.928C204.88 396.328 203.856 399.72 203.856 404.104C203.856 408.584 204.912 412.008 207.024 414.376C209.136 416.744 212.288 417.928 216.48 417.928C219.2 417.928 221.808 417.464 224.304 416.536V406.504H217.44C216.288 406.504 215.712 405.976 215.712 404.92C215.712 403.896 216.288 403.384 217.44 403.384H226.032C227.152 403.384 227.712 403.944 227.712 405.064V417.592C227.712 418.584 227.36 419.224 226.656 419.512C225.312 420.088 223.696 420.552 221.808 420.904C219.952 421.256 218.144 421.432 216.384 421.432ZM237.148 392.056C235.452 392.056 234.604 391.256 234.604 389.656C234.604 388.088 235.452 387.304 237.148 387.304C238.844 387.304 239.692 388.088 239.692 389.656C239.692 391.256 238.844 392.056 237.148 392.056ZM237.148 421.24C235.868 421.24 235.228 420.536 235.228 419.128V399.496C235.228 398.12 235.868 397.432 237.148 397.432C238.46 397.432 239.116 398.12 239.116 399.496V419.128C239.116 420.536 238.46 421.24 237.148 421.24ZM249.552 421.336C248.272 421.336 247.632 420.664 247.632 419.32V400.696H244.56C243.44 400.696 242.88 400.184 242.88 399.16C242.88 398.168 243.44 397.672 244.56 397.672H247.632V396.856C247.632 390.872 250.56 387.624 256.416 387.112L257.808 386.968C258.384 386.936 258.8 387.064 259.056 387.352C259.312 387.64 259.44 387.992 259.44 388.408C259.472 388.792 259.376 389.144 259.152 389.464C258.928 389.784 258.608 389.96 258.192 389.992L257.088 390.088C255.136 390.248 253.712 390.84 252.816 391.864C251.952 392.888 251.52 394.392 251.52 396.376V397.672H256.704C257.824 397.672 258.384 398.168 258.384 399.16C258.384 400.184 257.824 400.696 256.704 400.696H251.52V419.32C251.52 420.664 250.864 421.336 249.552 421.336ZM270.557 421.432C267.805 421.432 265.741 420.712 264.365 419.272C262.989 417.8 262.301 415.688 262.301 412.936V400.696H259.085C257.965 400.696 257.405 400.184 257.405 399.16C257.405 398.168 257.965 397.672 259.085 397.672H262.301V392.152C262.301 390.84 262.957 390.184 264.269 390.184C265.549 390.184 266.189 390.84 266.189 392.152V397.672H272.237C273.357 397.672 273.917 398.168 273.917 399.16C273.917 400.184 273.357 400.696 272.237 400.696H266.189V412.552C266.189 414.376 266.573 415.768 267.341 416.728C268.109 417.656 269.357 418.12 271.085 418.12C271.693 418.12 272.205 418.056 272.621 417.928C273.037 417.8 273.405 417.736 273.725 417.736C274.013 417.704 274.253 417.8 274.445 418.024C274.637 418.248 274.733 418.632 274.733 419.176C274.733 419.56 274.653 419.912 274.493 420.232C274.365 420.552 274.125 420.776 273.773 420.904C273.389 421.032 272.877 421.144 272.237 421.24C271.629 421.368 271.069 421.432 270.557 421.432Z" fill="#5CFFF7"/>
</svg>
